<?xml version="1.0" encoding="UTF-8" standalone="no"?>
<svg
   xmlns:dc="http://purl.org/dc/elements/1.1/"
   xmlns:cc="http://creativecommons.org/ns#"
   xmlns:rdf="http://www.w3.org/1999/02/22-rdf-syntax-ns#"
   xmlns:svg="http://www.w3.org/2000/svg"
   xmlns="http://www.w3.org/2000/svg"
   id="svg5624"
   version="1.1"
   viewBox="0 0 148.92488 51.685406"
   height="51.685406mm"
   width="148.92488mm">
  <defs
     id="defs5618" />
  <metadata
     id="metadata5621">
    <rdf:RDF>
      <cc:Work
         rdf:about="">
        <dc:format>image/svg+xml</dc:format>
        <dc:type
           rdf:resource="http://purl.org/dc/dcmitype/StillImage" />
        <dc:title></dc:title>
      </cc:Work>
    </rdf:RDF>
  </metadata>
  <g
     transform="translate(-32.722841,-28.651014)"
     id="layer1">
    <g
       transform="matrix(2.7153527,0,0,2.7153527,-313.84691,-589.62006)"
       id="g4938">
      <g
         id="g6564">
        <text
           id="text4668-0-4-9-0"
           y="241.17859"
           x="158.97617"
           style="font-style:normal;font-variant:normal;font-weight:normal;font-stretch:normal;font-size:11.27852249px;line-height:1.25;font-family:bison;-inkscape-font-specification:bison;letter-spacing:0px;word-spacing:0px;fill:#000000;fill-opacity:1;stroke:none;stroke-width:0.28196305;"
           xml:space="preserve"><tspan
             style="font-style:normal;font-variant:normal;font-weight:500;font-stretch:normal;font-size:11.27856159px;font-family:'Circular Std Book';-inkscape-font-specification:'Circular Std Book, weight=450';font-variant-ligatures:normal;font-variant-caps:normal;font-variant-numeric:normal;font-feature-settings:normal;text-align:center;writing-mode:lr-tb;text-anchor:middle;fill:#000000;fill-opacity:1;stroke-width:0.28196305;"
             y="241.17859"
             x="158.97617"
             id="tspan4666-3-4-0-5"><tspan
               id="tspan823-1-9-7-0"
               style="fill:#000000;fill-opacity:1;stroke-width:0.28196305;">hotuve</tspan></tspan></text>
        <g
           id="g6556">
          <path
             style="opacity:1;fill:#000000;fill-opacity:1;stroke:#000000;stroke-width:0.27599999;stroke-miterlimit:4;stroke-dasharray:none;stroke-opacity:1"
             d="m 137.47432,233.3397 a 3.9838432,3.9838432 0 0 0 -3.98389,3.98384 3.9838432,3.9838432 0 0 0 3.98389,3.98384 3.9838432,3.9838432 0 0 0 3.7211,-2.56434 l -0.65304,-0.40063 a 3.2354971,3.2354971 0 0 1 -3.06806,2.21659 3.2354971,3.2354971 0 0 1 -3.23551,-3.23546 3.2354971,3.2354971 0 0 1 3.23551,-3.2355 3.2354971,3.2354971 0 0 1 3.04069,2.13867 l 0.64922,-0.39829 a 3.9838432,3.9838432 0 0 0 -3.68991,-2.48872 z"
             id="path4612-1-7-3-7-4" />
          <path
             style="opacity:1;fill:#000000;fill-opacity:1;stroke-width:0.03095452;stroke-miterlimit:4;stroke-dasharray:none"
             d="m 136.88612,238.42999 1.83167,-1.1237 -1.83165,-1.12368 z"
             id="rect4541-4-74-7-8-2-1" />
        </g>
      </g>
    </g>
  </g>
</svg>
